<svg width="18" height="18" viewBox="0 0 18 18" fill="none" xmlns="http://www.w3.org/2000/svg">
<g clip-path="url(#clip0)">
<path d="M0.353516 9.30078C0.353516 9.66211 0.510208 10.0234 0.755039 10.2676L6.80727 16.2832C7.08148 16.5566 7.39487 16.6934 7.71804 16.6934C8.49171 16.6934 9.01075 16.1562 9.01075 15.4531C9.01075 15.0625 8.84427 14.75 8.59944 14.5156L6.49389 12.416L4.40792 10.502L6.43513 10.6094H17.002C17.8149 10.6094 18.3535 10.082 18.3535 9.30078C18.3535 8.51953 17.8149 7.99219 17.002 7.99219H6.43513L4.40792 8.10938L6.49389 6.19531L8.59944 4.08594C8.84427 3.8418 9.01075 3.53906 9.01075 3.14844C9.01075 2.44531 8.49171 1.9082 7.71804 1.9082C7.39487 1.9082 7.07169 2.04492 6.78768 2.32812L0.755039 8.33398C0.510208 8.57812 0.353516 8.94922 0.353516 9.30078Z" fill="black"/>
</g>
<defs>
<clipPath id="clip0">
<rect width="18" height="18" fill="white"/>
</clipPath>
</defs>
</svg>
