<svg width="24" height="24" viewBox="0 0 24 24" fill="none" xmlns="http://www.w3.org/2000/svg">
<path d="M4.44727 12.3291C4.44727 12.7988 4.625 13.1924 5.00586 13.5605L14.2734 22.625C14.5654 22.9297 14.9336 23.082 15.3652 23.082C16.2412 23.082 16.9395 22.3838 16.9395 21.5078C16.9395 21.0762 16.7617 20.6826 16.457 20.3779L8.19238 12.3291L16.457 4.28027C16.7617 3.97559 16.9395 3.56934 16.9395 3.15039C16.9395 2.27441 16.2412 1.57617 15.3652 1.57617C14.9336 1.57617 14.5654 1.72852 14.2734 2.0332L5.00586 11.085C4.625 11.4658 4.45996 11.8467 4.44727 12.3291Z" fill="#CACACA"/>
</svg>
