<svg width="24" height="24" viewBox="0 0 24 24" fill="none" xmlns="http://www.w3.org/2000/svg">
<path d="M19.4922 11.7529C19.4795 11.2705 19.3145 10.8896 18.9336 10.5088L9.66602 1.45703C9.37402 1.15234 9.00586 1 8.57422 1C7.69824 1 7 1.69824 7 2.57422C7 2.99316 7.17773 3.39941 7.48242 3.7041L15.7471 11.7529L7.48242 19.8018C7.17773 20.1064 7 20.5 7 20.9316C7 21.8076 7.69824 22.5059 8.57422 22.5059C9.00586 22.5059 9.37402 22.3535 9.66602 22.0488L18.9336 12.9844C19.3145 12.6162 19.4922 12.2227 19.4922 11.7529Z" fill="#CACACA"/>
</svg>
